<svg height='100px' width='100px'  fill="#ff00bb" xmlns:x="http://ns.adobe.com/Extensibility/1.0/" xmlns:i="http://ns.adobe.com/AdobeIllustrator/10.0/" xmlns:graph="http://ns.adobe.com/Graphs/1.0/" xmlns="http://www.w3.org/2000/svg" xmlns:xlink="http://www.w3.org/1999/xlink" version="1.1" x="0px" y="0px" viewBox="0 0 304.6 442.8" style="enable-background:new 0 0 304.6 442.8;" xml:space="preserve"><g><g i:extraneous="self"><g><path d="M304.3,408.3c-1.1-8.1-5.7-14.9-9.8-21.7c-3.8-6.2-7.7-12.4-11.6-18.6c-7.9-12.7-15.9-25.3-24.1-37.8     c-15.7-24.2-31.8-48.1-48.2-71.8c-0.9-76.8-2.5-28,0.1-104c0.5,0,1,0,1.5,0c17,0.3,17.1-26.1,0.1-26.4     c-40.3-0.7-80.5-0.5-120.8,0.6c-7.1,0.2-13.2,5.9-13.3,13.2c0,7,6,13.4,13.2,13.3c1.3,0,2.5-0.1,3.8-0.1     c-0.6,73.8-1,26-0.1,102.8c-16.6,23.7-32.9,47.7-48.8,71.9c-8.2,12.5-16.3,25-24.3,37.7c-3.9,6.2-7.8,12.4-11.7,18.6     c-4.2,6.8-8.8,13.6-10,21.7C-1.9,422.3,8,438.3,22.1,440c31.2,3.6,238.2,3.6,260.2,0.7C296.5,438.8,306.4,423.1,304.3,408.3z      M184.4,154c-0.6,78.4-1,25.8-0.1,108.2c0,1.7,0.3,3.2,0.8,4.5c0.3,1.2,0.9,2.3,1.6,3.4c9.6,13.7,19,27.6,28.3,41.5     c-10.2,0-20.3,0.1-30.5,0.1c0.1-1,0.2-2,0.2-3l0-0.7c0.2-4.4-0.7-8.5-2.7-12.3c-1.3-3.9-3.5-7.4-6.6-10.3     c-2.9-3.1-6.3-5.3-10.2-6.6c-3.8-2-7.9-2.9-12.3-2.8c-2.8,0.4-5.6,0.7-8.5,1.1c-5.4,1.5-10.1,4.2-14.1,8.1     c-1.7,2.1-3.3,4.3-5,6.4c-2.9,5-4.4,10.3-4.4,16l0,0.7c0,1.2,0,2.3,0.1,3.5c-10.5,0-21,0.1-31.4,0.1     c9.6-14.2,19.3-28.3,29.1-42.2c0.5-0.8,1-1.6,1.3-2.5c0.9-1.7,1.4-3.8,1.4-6.2c0.2-80.2-2.5-31,0-107     C142.5,154,163.4,153.9,184.4,154z"></path><path d="M167.4,244.7c7.9,0,15.6-6.9,15.2-15.1c-0.3-8.2-6.6-15.2-15.1-15.2c-7.9,0-15.6,6.9-15.2,15.1     C152.6,237.7,158.9,244.6,167.4,244.7z"></path><ellipse transform="matrix(0.8452 -0.5345 0.5345 0.8452 -25.8855 88.8313)" cx="140.4" cy="89.1" rx="13.7" ry="13.7"></ellipse><path d="M192.4,19.6C205,19.6,205.1,0,192.4,0C179.8,0,179.8,19.5,192.4,19.6z"></path></g></g></g></svg>